HIERARCHY
ROOT hip
{
	OFFSET 0.000000 0.000000 0.000000 
	CHANNELS 6 Xposition Yposition Zposition Xrotation Zrotation Yrotation
	JOINT abdomen
	{
		OFFSET 0.000000 3.402643 0.000000 
		CHANNELS 3 Xrotation Zrotation Yrotation
		JOINT chest
		{
			OFFSET 0.000000 8.438565 -0.680529 
			CHANNELS 3 Xrotation Zrotation Yrotation
			JOINT neck
			{
				OFFSET 0.000000 10.207942 -0.272212 
				CHANNELS 3 Xrotation Zrotation Yrotation
				JOINT head
				{
					OFFSET 0.000000 3.130431 0.000000 
					CHANNELS 3 Xrotation Zrotation Yrotation
					End Site
					{
						OFFSET 0.000000 3.130435 0.000000 
					}
				}
			}
			JOINT lCollar
			{
				OFFSET 3.470700 6.669187 -0.816635 
				CHANNELS 3 Yrotation Zrotation Xrotation
				JOINT lShldr
				{
					OFFSET 3.198488 0.000000 0.000000 
					CHANNELS 3 Zrotation Yrotation Xrotation
					JOINT lForeArm
					{
						OFFSET 10.139888 0.000000 0.000000 
						CHANNELS 3 Yrotation Zrotation Xrotation
						JOINT lHand
						{
							OFFSET 8.370511 0.000000 0.000000 
							CHANNELS 3 Zrotation Yrotation Xrotation
							End Site
							{
								OFFSET 4.083176 0.000000 0.000000 
							}
						}
					}
				}
			}
			JOINT rCollar
			{
				OFFSET -3.470700 6.669187 -0.816635 
				CHANNELS 3 Yrotation Zrotation Xrotation
				JOINT rShldr
				{
					OFFSET -3.198488 0.000000 0.000000 
					CHANNELS 3 Zrotation Yrotation Xrotation
					JOINT rForeArm
					{
						OFFSET -10.139888 0.000000 0.000000 
						CHANNELS 3 Yrotation Zrotation Xrotation
						JOINT rHand
						{
							OFFSET -8.370511 0.000000 0.000000 
							CHANNELS 3 Zrotation Yrotation Xrotation
							End Site
							{
								OFFSET -4.083176 0.000000 0.000000 
							}
						}
					}
				}
			}
		}
	}
	JOINT lThigh
	{
		OFFSET 5.308129 -1.633274 1.361059 
		CHANNELS 3 Xrotation Zrotation Yrotation
		JOINT lShin
		{
			OFFSET -2.041588 -20.007561 0.000000 
			CHANNELS 3 Xrotation Zrotation Yrotation
			JOINT lFoot
			{
				OFFSET 0.000000 -19.190928 -1.224953 
				CHANNELS 3 Xrotation Yrotation Zrotation
				End Site
				{
					OFFSET 0.000000 -2.449906 4.627600 
				}
			}
		}
	}
	JOINT rThigh
	{
		OFFSET -5.308129 -1.633274 1.361059 
		CHANNELS 3 Xrotation Zrotation Yrotation
		JOINT rShin
		{
			OFFSET 2.041588 -20.007561 0.000000 
			CHANNELS 3 Xrotation Zrotation Yrotation
			JOINT rFoot
			{
				OFFSET 0.000000 -19.190928 -1.224953 
				CHANNELS 3 Xrotation Yrotation Zrotation
				End Site
				{
					OFFSET 0.000000 -2.449906 4.627600 
				}
			}
		}
	}
}
MOTION
Frames: 8
Frame Time: 0.033333
-0.703382 52.521095 2.598676 4.218750 1.748047 -39.950874 16.916643 -9.728045 5.486338 -20.458984 11.093750 9.238282 51.553619 8.070152 2.616707 -50.673828 -12.089842 7.460938 2.000000 -2.000000 0.000000 -89.531250 31.494135 -52.026150 -61.784626 -0.902001 -2.604100 41.537746 54.344540 16.903929 -2.000000 2.000000 0.000000 42.646481 -12.812500 3.515625 126.505295 -1.983064 -2.615154 50.338436 6.219344 -63.334110 -13.434709 2.078173 21.932167 16.348858 -5.588463 -1.489345 1.664220 6.878834 3.182603 12.056396 -5.516171 -5.222567 24.021299 5.174118 3.033453 26.920467 -3.346139 -0.189917 
-1.337011 52.592258 5.108227 3.339844 2.451172 -38.173412 17.126753 -9.066698 4.605913 -20.859375 10.244141 8.691405 51.553619 8.070152 2.616707 -50.156250 -12.304687 7.001954 2.000000 -2.000000 0.000000 -89.257813 30.654299 -52.919926 -61.786648 -1.052766 -2.673556 42.133839 53.272751 17.331570 -2.000000 2.000000 0.000000 42.685547 -14.042967 3.405836 126.680260 -1.984762 -2.585918 50.856380 6.596235 -63.440552 -10.421942 -0.716409 20.401594 15.678469 -5.596067 -1.596368 -0.621293 6.396760 2.394390 15.208793 -7.292650 -8.458454 20.294588 4.817097 2.259576 37.912670 -1.925413 -3.700949 
-1.707220 52.584358 7.296949 2.812500 2.617188 -34.843304 17.415541 -8.409635 3.346081 -21.230469 9.375001 8.155889 51.553619 8.070152 2.616707 -49.628910 -12.695312 6.865235 2.000000 -2.000000 0.000000 -88.974609 29.697266 -52.934616 -61.604244 -0.902997 -2.789984 42.588772 52.107265 17.425749 -2.000000 2.000000 0.000000 42.304688 -14.697266 3.251953 126.875206 -2.160247 -2.596092 51.364712 7.178720 -63.595406 -7.557895 -2.343451 18.138075 15.331941 -6.151604 -1.814573 -1.749576 5.634429 2.353065 19.711237 -7.899596 -11.117434 13.952089 5.123481 1.454011 47.423443 -1.102458 -4.813444 
-1.720183 52.434109 9.213807 2.636719 2.255841 -29.950983 18.117714 -7.339626 1.712065 -21.611330 8.515625 7.617188 51.553619 8.070152 2.616707 -49.306648 -13.076172 7.304687 2.000000 -2.000000 0.000000 -87.421875 28.515625 -51.245338 -61.604244 -0.902997 -2.789984 42.239761 51.319530 16.740730 -2.000000 2.000000 0.000000 42.304688 -15.146485 2.998047 126.874207 -1.976985 -2.888594 51.730270 7.435359 -63.590023 -5.244634 -4.080247 15.145873 14.983352 -6.181882 -1.747475 -3.393512 4.318142 2.937185 24.357910 -6.757425 -12.154554 6.568529 5.297671 0.720917 58.869858 -0.731679 -3.802685 
-1.342988 52.181049 10.869887 2.460938 1.904297 -24.365234 19.398069 -5.328674 -1.201805 -22.343750 7.490234 6.856741 51.553619 8.070152 2.616707 -49.511719 -13.408203 8.896484 2.000000 -2.000000 0.000000 -86.054688 26.455080 -48.931198 -61.421001 -1.043710 -2.517629 41.755669 50.546024 16.263859 -2.000000 2.000000 0.000000 42.646481 -14.560546 3.613281 126.875206 -2.160247 -2.596092 51.785286 7.970489 -63.420300 -3.290059 -5.584161 11.192063 14.806892 -6.171874 -1.749493 -5.279986 3.349852 3.671315 13.372944 -9.723629 -8.892181 19.431078 4.860727 2.156180 64.505692 -2.262800 -3.180315 
-0.736005 51.928001 12.174720 2.265625 1.386719 -18.574219 20.892937 -2.460271 -4.873374 -23.447268 6.298829 5.878907 51.553619 8.070152 2.616707 -49.873047 -13.564452 10.908203 2.000000 -2.000000 0.000000 -84.160156 23.906252 -46.591801 -61.245495 -1.044276 -2.527375 41.274921 49.792542 15.815527 -2.000000 2.000000 0.000000 43.339844 -13.544922 4.323887 126.680260 -1.984762 -2.585918 51.785286 7.970489 -63.420300 -1.452111 -6.585399 6.718609 14.623312 -6.182127 -1.704174 -6.504008 3.020425 3.758129 -4.471125 -12.084844 -0.737378 39.815399 4.227719 3.593172 62.707993 -4.884830 -2.546416 
-0.330750 51.840996 13.274404 2.275391 0.869141 -12.626804 22.173164 -0.652846 -7.986146 -23.808596 5.781251 4.912109 51.553619 8.070152 2.616707 -50.410160 -13.349608 11.396484 2.000000 -2.000000 0.000000 -80.849609 21.279295 -41.591793 -61.077179 -0.893813 -2.800295 40.306183 48.863338 14.620150 -2.000000 2.000000 0.000000 44.414063 -13.212891 3.454799 126.487442 -1.658237 -2.987167 51.777351 8.009968 -63.175144 0.087578 -7.005964 1.691909 14.661964 -6.192051 -1.699168 -6.445103 2.892832 3.527886 -22.537775 -11.229765 5.497178 60.132092 2.063152 4.887473 57.996407 -6.445277 -1.646543 
-0.205112 51.817276 14.361573 1.933594 0.341797 -6.669864 22.909273 0.075847 -10.263000 -23.447266 6.123047 3.925711 51.553619 8.070152 2.616707 -51.074223 -12.578125 9.990233 2.000000 -2.000000 0.000000 -76.523438 18.154297 -35.673828 -61.069706 -1.044276 -2.527375 39.528610 48.333828 13.764076 -2.000000 2.000000 0.000000 45.009766 -14.003906 0.966797 126.680260 -1.984762 -2.585918 51.740524 8.676502 -63.934956 1.511974 -6.937403 -3.094456 14.455088 -5.915912 -2.049269 -5.681698 2.275304 2.910138 -34.958214 -10.184906 7.755232 71.682869 1.211540 5.645824 53.788940 -8.176606 -0.049939 
